<?xml version="1.0" standalone="no"?>
<!DOCTYPE svg PUBLIC "-//W3C//DTD SVG 20010904//EN"
 "http://www.w3.org/TR/2001/REC-SVG-20010904/DTD/svg10.dtd">
<svg version="1.0" xmlns="http://www.w3.org/2000/svg"
 width="255.000000pt" height="255.000000pt" viewBox="0 0 255.000000 255.000000"
 preserveAspectRatio="xMidYMid meet">
<metadata>
Created by potrace 1.11, written by Peter Selinger 2001-2013
</metadata>
<g transform="translate(0.000000,255.000000) scale(0.100000,-0.100000)"
fill="#000000" stroke="none">
<path d="M235 2507 c-20 -15 -20 -29 -23 -1109 -1 -730 1 -1110 8 -1144 9 -44
16 -54 51 -73 35 -20 51 -22 144 -19 58 1 105 5 105 9 0 3 6 6 13 7 36 2 198
52 293 90 29 12 55 18 58 15 3 -4 6 -1 6 6 0 8 8 11 20 8 11 -3 18 -2 15 3 -5
8 84 46 98 42 4 -1 7 2 7 7 0 9 54 34 76 34 7 0 11 4 9 8 -5 6 29 19 49 18 5
-1 12 4 15 9 3 5 24 19 47 30 32 16 44 18 53 9 10 -9 11 -8 6 4 -5 12 5 21 37
35 24 10 48 18 55 17 7 0 11 2 10 6 -1 3 2 7 7 8 5 1 12 6 15 11 9 13 91 54
91 45 0 -5 5 0 11 10 5 9 14 17 19 17 4 0 40 18 79 41 39 23 78 39 86 35 9 -3
12 0 8 10 -3 7 -1 14 4 14 5 0 55 27 111 61 58 34 107 57 113 53 8 -4 9 -3 5
4 -8 13 70 66 84 57 6 -4 10 1 10 9 0 8 10 18 22 22 12 3 31 15 42 25 11 11
32 25 48 31 15 7 28 16 28 20 0 5 5 8 11 8 6 0 17 7 26 15 8 8 20 12 26 8 7
-3 9 -3 5 2 -8 9 59 64 78 65 7 0 15 7 18 16 4 9 9 14 12 11 3 -2 15 5 28 17
12 11 46 41 75 66 29 25 58 50 65 55 6 6 17 22 23 37 10 23 9 30 -15 61 -15
18 -54 55 -87 82 -100 80 -480 325 -666 428 -631 352 -1049 550 -1329 632 -85
24 -181 30 -205 12z"/>
<path d="M2480 1190 c-9 -6 -10 -10 -3 -10 6 0 15 5 18 10 8 12 4 12 -15 0z"/>
<path d="M2396 1117 c3 -10 9 -15 12 -12 3 3 0 11 -7 18 -10 9 -11 8 -5 -6z"/>
<path d="M2070 869 c0 -5 5 -7 10 -4 6 3 10 8 10 11 0 2 -4 4 -10 4 -5 0 -10
-5 -10 -11z"/>
<path d="M956 237 c3 -10 9 -15 12 -12 3 3 0 11 -7 18 -10 9 -11 8 -5 -6z"/>
</g>
</svg>
